<svg width="512" height="512" xmlns="http://www.w3.org/2000/svg">
 <g>
  <title>background</title>
  <rect x="-1" y="-1" width="514" height="514" id="canvas_background" fill="none"/>
 </g>

 <g>
  <title>Layer 1</title>
  <path stroke="null" d="m254.666673,232.59504c-9.74165,0 -17.666681,6.612353 -17.666681,14.740425c0,4.228002 2.14524,8.045815 5.574731,10.736162c1.096282,-3.062695 3.819895,-5.543013 7.330885,-6.741222c-1.712775,-1.159273 -2.81037,-2.927795 -2.81037,-4.907443c0,-3.483303 3.39663,-6.317325 7.571435,-6.317325s7.571435,2.834022 7.571435,6.317325c0,1.979648 -1.097596,3.74817 -2.810369,4.907443c3.510989,1.198208 6.234602,3.678526 7.330884,6.741222c3.429491,-2.690347 5.574731,-6.50816 5.574731,-10.736162c0,-8.128073 -7.925031,-14.740425 -17.666681,-14.740425zm0,0" id="svg_3"/>
  <path stroke="null" d="m255.999994,205.999969c-24.261398,0 -44.000025,18.399822 -44.000025,41.01565c0,18.234265 12.889814,34.220908 31.521075,39.340997l9.667564,18.023693c0.531994,0.992585 1.620538,1.619722 2.811386,1.619722c1.190031,0 2.278573,-0.627137 2.810567,-1.619722l9.667566,-18.022929c18.632079,-5.120091 31.521892,-21.106734 31.521892,-39.341761c0,-22.615828 -19.738627,-41.01565 -44.000025,-41.01565zm0,67.382854c-15.596437,0 -28.28573,-11.828621 -28.28573,-26.367204s12.689293,-26.367204 28.28573,-26.367204s28.28573,11.828621 28.28573,26.367204s-12.689293,26.367204 -28.28573,26.367204zm0,0" id="svg_4"/>
 </g>
</svg>